<svg xmlns="http://www.w3.org/2000/svg" viewBox="0 0 64 64"><defs><style>.cls-1{fill:#ffb74d;}.cls-2{fill:#7c4c19;}.cls-3{fill:#ef9014;}</style></defs><title>Emoji Frown</title><g id="Layer_2" data-name="Layer 2"><g id="Layer_1-2" data-name="Layer 1"><circle class="cls-1" cx="32" cy="32" r="32"/><circle class="cls-2" cx="18.13" cy="30.93" r="5.33"/><circle class="cls-2" cx="45.87" cy="30.93" r="5.33"/><path class="cls-3" d="M46.93,49.87a2,2,0,0,1-.79-.16,36.08,36.08,0,0,0-28.29,0A2,2,0,1,1,16.28,46a40.08,40.08,0,0,1,31.44,0,2,2,0,0,1-.79,3.84Z"/><path class="cls-2" d="M10.67,25.47a2,2,0,0,1-1.41-3.41c.29-.29,7.07-7,14.21-7a2,2,0,1,1,0,4c-4.57,0-9.77,4.2-11.39,5.81A2,2,0,0,1,10.67,25.47Z"/><path class="cls-2" d="M53.33,25.47a2,2,0,0,1-1.41-.58h0c-.06-.06-5.91-5.82-11.39-5.82a2,2,0,0,1,0-4c7.15,0,13.93,6.7,14.21,7a2,2,0,0,1-1.41,3.41Z"/></g></g></svg>