<svg xmlns="http://www.w3.org/2000/svg" viewBox="0 0 64 64"><defs><style>.cls-1{fill:#ffb74d;}.cls-2{fill:#7c4c19;}.cls-3{fill:#ff00b7;}</style></defs><title>Emoji Happy</title><g id="Layer_2" data-name="Layer 2"><g id="Layer_1-2" data-name="Layer 1"><circle class="cls-1" cx="32" cy="32" r="32"/><circle class="cls-2" cx="18.13" cy="30.93" r="5.33"/><circle class="cls-2" cx="45.87" cy="30.93" r="5.33"/><path class="cls-2" d="M10.67,25.47a2,2,0,0,1-1.41-3.41c.29-.29,7.07-7,14.21-7a2,2,0,1,1,0,4c-4.57,0-9.77,4.2-11.39,5.81A2,2,0,0,1,10.67,25.47Z"/><path class="cls-2" d="M53.33,25.47a2,2,0,0,1-1.41-.58h0c-.06-.06-5.91-5.82-11.39-5.82a2,2,0,0,1,0-4c7.15,0,13.93,6.7,14.21,7a2,2,0,0,1-1.41,3.41Z"/><path class="cls-2" d="M40.76,53.16a14.93,14.93,0,0,1-17.52,0C18.81,50.05,16.69,45.31,18,44c2-2,8,0,14,0s12-2,14,0C47.31,45.31,45.19,50.05,40.76,53.16Z"/><path class="cls-3" d="M40.76,53.16a14.93,14.93,0,0,1-17.52,0A13.23,13.23,0,0,1,32,50,13.23,13.23,0,0,1,40.76,53.16Z"/></g></g></svg>